# xmcd CD database file
#
# Track frame offsets:
#	182
#	22815
#	38562
#	50765
#	60745
#	72745
#	90055
#	105807
#	112925
#	121067
#	125622
#	138302
#
# Disc length: 2114 seconds
#
# Revision: 2
# Processed by: cddbd v1.4b41PL1 Copyright (c) Steve Scherf et al.
# Submitted via: Feurio! 1.52 - http://www.feurio.com
#
DISCID=9208400c
DTITLE=Great British Guitar Masters - Geoff Bradford- The Return Of A Guitar 
DTITLE=Legend
DYEAR=1900
DGENRE=
TTITLE0=Going Down Slow
TTITLE1=Broke And Hungry
TTITLE2=The Dark Side
TTITLE3=Pontiac
TTITLE4=Keys To The Highway
TTITLE5=Paris Strut
TTITLE6=Alimony
TTITLE7=Red´s Piece
TTITLE8=Hallelujah I Love Her So
TTITLE9=Blind Blake´s Rag
TTITLE10=Blues Jumped The Devil
TTITLE11=Auto Mechanic´s Blues
EXTD=
EXTT0=
EXTT1=
EXTT2=
EXTT3=
EXTT4=
EXTT5=
EXTT6=
EXTT7=
EXTT8=
EXTT9=
EXTT10=
EXTT11=
PLAYORDER=
